<?xml version="1.0" encoding="UTF-8" standalone="no"?>
<!DOCTYPE svg PUBLIC "-//W3C//DTD SVG 1.1//EN"
 "http://www.w3.org/Graphics/SVG/1.1/DTD/svg11.dtd">
<!-- Generated by graphviz version 2.43.0 (0)
 -->
<!-- Title: dependency&#45;cruiser output Pages: 1 -->
<svg width="242pt" height="94pt"
 viewBox="0.00 0.00 242.00 94.00" xmlns="http://www.w3.org/2000/svg" xmlns:xlink="http://www.w3.org/1999/xlink">
<g id="graph0" class="graph" transform="scale(1 1) rotate(0) translate(4 90)">
<title>dependency&#45;cruiser output</title>
<polygon fill="white" stroke="transparent" points="-4,4 -4,-90 238,-90 238,4 -4,4"/>
<g id="clust1" class="cluster">
<title>cluster_service</title>
<path fill="#ffffff" stroke="black" stroke-width="2" d="M74,-26C74,-26 214,-26 214,-26 220,-26 226,-32 226,-38 226,-38 226,-66 226,-66 226,-72 220,-78 214,-78 214,-78 74,-78 74,-78 68,-78 62,-72 62,-66 62,-66 62,-38 62,-38 62,-32 68,-26 74,-26"/>
<text text-anchor="middle" x="144" y="-66.8" font-family="Helvetica,sans-Serif" font-weight="bold" font-size="9.00">service</text>
</g>
<!-- path -->
<g id="node1" class="node">
<title>path</title>
<path fill="#ffffcc" stroke="grey" d="M198.5,-18C198.5,-18 156.5,-18 156.5,-18 153.5,-18 150.5,-15 150.5,-12 150.5,-12 150.5,-6 150.5,-6 150.5,-3 153.5,0 156.5,0 156.5,0 198.5,0 198.5,0 201.5,0 204.5,-3 204.5,-6 204.5,-6 204.5,-12 204.5,-12 204.5,-15 201.5,-18 198.5,-18"/>
<text text-anchor="middle" x="177.5" y="-6.8" font-family="Helvetica,sans-Serif" font-size="9.00" fill="grey">path</text>
</g>
<!-- server.js -->
<g id="node2" class="node">
<title>server.js</title>
<g id="a_node2"><a xlink:href="server.js" xlink:title="server.js">
<path fill="#ffffcc" stroke="black" d="M48,-35C48,-35 6,-35 6,-35 3,-35 0,-32 0,-29 0,-29 0,-23 0,-23 0,-20 3,-17 6,-17 6,-17 48,-17 48,-17 51,-17 54,-20 54,-23 54,-23 54,-29 54,-29 54,-32 51,-35 48,-35"/>
<text text-anchor="middle" x="27" y="-23.8" font-family="Helvetica,sans-Serif" font-size="9.00">server.js</text>
</a>
</g>
</g>
<!-- server.js&#45;&gt;path -->
<g id="edge2" class="edge">
<title>server.js&#45;&gt;path</title>
<path fill="none" stroke="#000000" stroke-dasharray="5,2" stroke-opacity="0.200000" d="M54.21,-23C79.18,-20.14 116.87,-15.83 143.8,-12.74"/>
<polygon fill="#000000" fill-opacity="0.200000" stroke="#000000" stroke-opacity="0.200000" points="144.33,-14.8 150.06,-12.03 143.86,-10.62 144.33,-14.8"/>
</g>
<!-- service/api.js -->
<g id="node3" class="node">
<title>service/api.js</title>
<g id="a_node3"><a xlink:href="service/api.js" xlink:title="api.js">
<path fill="#ffffcc" stroke="black" d="M118,-52C118,-52 76,-52 76,-52 73,-52 70,-49 70,-46 70,-46 70,-40 70,-40 70,-37 73,-34 76,-34 76,-34 118,-34 118,-34 121,-34 124,-37 124,-40 124,-40 124,-46 124,-46 124,-49 121,-52 118,-52"/>
<text text-anchor="middle" x="97" y="-40.8" font-family="Helvetica,sans-Serif" font-size="9.00">api.js</text>
</a>
</g>
</g>
<!-- server.js&#45;&gt;service/api.js -->
<g id="edge1" class="edge">
<title>server.js&#45;&gt;service/api.js</title>
<path fill="none" stroke="#000000" stroke-width="2" stroke-opacity="0.200000" d="M54.1,-32.52C57.12,-33.28 60.23,-34.06 63.33,-34.83"/>
<polygon fill="#000000" fill-opacity="0.200000" stroke="#000000" stroke-width="2" stroke-opacity="0.200000" points="63.31,-36.99 69.64,-36.41 64.32,-32.92 63.31,-36.99"/>
</g>
<!-- service/api.js&#45;&gt;path -->
<g id="edge4" class="edge">
<title>service/api.js&#45;&gt;path</title>
<path fill="none" stroke="#000000" stroke-dasharray="5,2" stroke-opacity="0.200000" d="M114.47,-33.94C121.33,-30.32 129.45,-26.25 137,-23 139.41,-21.96 141.91,-20.94 144.45,-19.95"/>
<polygon fill="#000000" fill-opacity="0.200000" stroke="#000000" stroke-opacity="0.200000" points="145.52,-21.79 150.39,-17.7 144.03,-17.86 145.52,-21.79"/>
</g>
<!-- service/book&#45;scrape.js -->
<g id="node4" class="node">
<title>service/book&#45;scrape.js</title>
<g id="a_node4"><a xlink:href="service/book-scrape.js" xlink:title="book&#45;scrape.js">
<path fill="#ffffcc" stroke="black" d="M212,-52C212,-52 143,-52 143,-52 140,-52 137,-49 137,-46 137,-46 137,-40 137,-40 137,-37 140,-34 143,-34 143,-34 212,-34 212,-34 215,-34 218,-37 218,-40 218,-40 218,-46 218,-46 218,-49 215,-52 212,-52"/>
<text text-anchor="middle" x="177.5" y="-40.8" font-family="Helvetica,sans-Serif" font-size="9.00">book&#45;scrape.js</text>
</a>
</g>
</g>
<!-- service/api.js&#45;&gt;service/book&#45;scrape.js -->
<g id="edge3" class="edge">
<title>service/api.js&#45;&gt;service/book&#45;scrape.js</title>
<path fill="none" stroke="#000000" stroke-width="2" stroke-opacity="0.200000" d="M124.14,-43C126.32,-43 128.56,-43 130.83,-43"/>
<polygon fill="#000000" fill-opacity="0.200000" stroke="#000000" stroke-width="2" stroke-opacity="0.200000" points="130.89,-45.1 136.89,-43 130.89,-40.9 130.89,-45.1"/>
</g>
</g>
</svg>
