<?xml version="1.0" encoding="UTF-8" standalone="no"?>
<!DOCTYPE svg PUBLIC "-//W3C//DTD SVG 1.1//EN"
 "http://www.w3.org/Graphics/SVG/1.1/DTD/svg11.dtd">
<!-- Generated by graphviz version 2.43.0 (0)
 -->
<!-- Title: dependency&#45;cruiser output Pages: 1 -->
<svg width="511pt" height="563pt"
 viewBox="0.00 0.00 511.00 563.39" xmlns="http://www.w3.org/2000/svg" xmlns:xlink="http://www.w3.org/1999/xlink">
<g id="graph0" class="graph" transform="scale(1 1) rotate(0) translate(4 559.39)">
<title>dependency&#45;cruiser output</title>
<polygon fill="white" stroke="transparent" points="-4,4 -4,-559.39 507,-559.39 507,4 -4,4"/>
<g id="clust1" class="cluster">
<title>cluster_components</title>
<path fill="#ffffff" stroke="black" stroke-width="2" d="M283,-90.94C283,-90.94 385,-90.94 385,-90.94 391,-90.94 397,-96.94 397,-102.94 397,-102.94 397,-460.94 397,-460.94 397,-466.94 391,-472.94 385,-472.94 385,-472.94 283,-472.94 283,-472.94 277,-472.94 271,-466.94 271,-460.94 271,-460.94 271,-102.94 271,-102.94 271,-96.94 277,-90.94 283,-90.94"/>
<text text-anchor="middle" x="334" y="-461.74" font-family="Helvetica,sans-Serif" font-weight="bold" font-size="9.00">components</text>
</g>
<g id="clust2" class="cluster">
<title>cluster_context</title>
<path fill="#ffffff" stroke="black" stroke-width="2" d="M311,-30.94C311,-30.94 357,-30.94 357,-30.94 363,-30.94 369,-36.94 369,-42.94 369,-42.94 369,-70.94 369,-70.94 369,-76.94 363,-82.94 357,-82.94 357,-82.94 311,-82.94 311,-82.94 305,-82.94 299,-76.94 299,-70.94 299,-70.94 299,-42.94 299,-42.94 299,-36.94 305,-30.94 311,-30.94"/>
<text text-anchor="middle" x="334" y="-71.74" font-family="Helvetica,sans-Serif" font-weight="bold" font-size="9.00">context</text>
</g>
<g id="clust3" class="cluster">
<title>cluster_pages</title>
<path fill="#ffffff" stroke="black" stroke-width="2" d="M179,-300.94C179,-300.94 251,-300.94 251,-300.94 257,-300.94 263,-306.94 263,-312.94 263,-312.94 263,-460.94 263,-460.94 263,-466.94 257,-472.94 251,-472.94 251,-472.94 179,-472.94 179,-472.94 173,-472.94 167,-466.94 167,-460.94 167,-460.94 167,-312.94 167,-312.94 167,-306.94 173,-300.94 179,-300.94"/>
<text text-anchor="middle" x="215" y="-461.74" font-family="Helvetica,sans-Serif" font-weight="bold" font-size="9.00">pages</text>
</g>
<g id="clust4" class="cluster">
<title>cluster_utils</title>
<path fill="#ffffff" stroke="black" stroke-width="2" d="M191,-240.94C191,-240.94 239,-240.94 239,-240.94 245,-240.94 251,-246.94 251,-252.94 251,-252.94 251,-280.94 251,-280.94 251,-286.94 245,-292.94 239,-292.94 239,-292.94 191,-292.94 191,-292.94 185,-292.94 179,-286.94 179,-280.94 179,-280.94 179,-252.94 179,-252.94 179,-246.94 185,-240.94 191,-240.94"/>
<text text-anchor="middle" x="215" y="-281.74" font-family="Helvetica,sans-Serif" font-weight="bold" font-size="9.00">utils</text>
</g>
<!-- App.js -->
<g id="node1" class="node">
<title>App.js</title>
<g id="a_node1"><a xlink:href="App.js" xlink:title="App.js">
<path fill="#ffffcc" stroke="black" d="M134,-386.94C134,-386.94 92,-386.94 92,-386.94 89,-386.94 86,-383.94 86,-380.94 86,-380.94 86,-374.94 86,-374.94 86,-371.94 89,-368.94 92,-368.94 92,-368.94 134,-368.94 134,-368.94 137,-368.94 140,-371.94 140,-374.94 140,-374.94 140,-380.94 140,-380.94 140,-383.94 137,-386.94 134,-386.94"/>
<text text-anchor="middle" x="113" y="-375.74" font-family="Helvetica,sans-Serif" font-size="9.00">App.js</text>
</a>
</g>
</g>
<!-- pages/Login.js -->
<g id="node2" class="node">
<title>pages/Login.js</title>
<g id="a_node2"><a xlink:href="pages/Login.js" xlink:title="Login.js">
<path fill="#ffffcc" stroke="black" d="M236,-326.94C236,-326.94 194,-326.94 194,-326.94 191,-326.94 188,-323.94 188,-320.94 188,-320.94 188,-314.94 188,-314.94 188,-311.94 191,-308.94 194,-308.94 194,-308.94 236,-308.94 236,-308.94 239,-308.94 242,-311.94 242,-314.94 242,-314.94 242,-320.94 242,-320.94 242,-323.94 239,-326.94 236,-326.94"/>
<text text-anchor="middle" x="215" y="-315.74" font-family="Helvetica,sans-Serif" font-size="9.00">Login.js</text>
</a>
</g>
</g>
<!-- App.js&#45;&gt;pages/Login.js -->
<g id="edge1" class="edge">
<title>App.js&#45;&gt;pages/Login.js</title>
<path fill="none" stroke="#000000" stroke-width="2" stroke-opacity="0.200000" d="M122.55,-368.77C132.39,-358.69 149.48,-342.66 167,-332.94 171.63,-330.37 176.76,-328.17 181.89,-326.31"/>
<polygon fill="#000000" fill-opacity="0.200000" stroke="#000000" stroke-width="2" stroke-opacity="0.200000" points="182.87,-328.19 187.87,-324.27 181.51,-324.21 182.87,-328.19"/>
</g>
<!-- pages/NoMatch.js -->
<g id="node3" class="node">
<title>pages/NoMatch.js</title>
<g id="a_node3"><a xlink:href="pages/NoMatch.js" xlink:title="NoMatch.js">
<path fill="#ffffcc" stroke="black" d="M242,-416.94C242,-416.94 188,-416.94 188,-416.94 185,-416.94 182,-413.94 182,-410.94 182,-410.94 182,-404.94 182,-404.94 182,-401.94 185,-398.94 188,-398.94 188,-398.94 242,-398.94 242,-398.94 245,-398.94 248,-401.94 248,-404.94 248,-404.94 248,-410.94 248,-410.94 248,-413.94 245,-416.94 242,-416.94"/>
<text text-anchor="middle" x="215" y="-405.74" font-family="Helvetica,sans-Serif" font-size="9.00">NoMatch.js</text>
</a>
</g>
</g>
<!-- App.js&#45;&gt;pages/NoMatch.js -->
<g id="edge2" class="edge">
<title>App.js&#45;&gt;pages/NoMatch.js</title>
<path fill="none" stroke="#000000" stroke-width="2" stroke-opacity="0.200000" d="M140.01,-385.74C151.55,-389.2 165.32,-393.34 177.84,-397.09"/>
<polygon fill="#000000" fill-opacity="0.200000" stroke="#000000" stroke-width="2" stroke-opacity="0.200000" points="177.51,-399.19 183.87,-398.9 178.72,-395.16 177.51,-399.19"/>
</g>
<!-- pages/Player.js -->
<g id="node4" class="node">
<title>pages/Player.js</title>
<g id="a_node4"><a xlink:href="pages/Player.js" xlink:title="Player.js">
<path fill="#ffffcc" stroke="black" d="M236,-356.94C236,-356.94 194,-356.94 194,-356.94 191,-356.94 188,-353.94 188,-350.94 188,-350.94 188,-344.94 188,-344.94 188,-341.94 191,-338.94 194,-338.94 194,-338.94 236,-338.94 236,-338.94 239,-338.94 242,-341.94 242,-344.94 242,-344.94 242,-350.94 242,-350.94 242,-353.94 239,-356.94 236,-356.94"/>
<text text-anchor="middle" x="215" y="-345.74" font-family="Helvetica,sans-Serif" font-size="9.00">Player.js</text>
</a>
</g>
</g>
<!-- App.js&#45;&gt;pages/Player.js -->
<g id="edge3" class="edge">
<title>App.js&#45;&gt;pages/Player.js</title>
<path fill="none" stroke="#000000" stroke-width="2" stroke-opacity="0.200000" d="M140.01,-370.14C152.76,-366.31 168.23,-361.67 181.73,-357.62"/>
<polygon fill="#000000" fill-opacity="0.200000" stroke="#000000" stroke-width="2" stroke-opacity="0.200000" points="182.63,-359.54 187.77,-355.81 181.42,-355.52 182.63,-359.54"/>
</g>
<!-- pages/Profile.js -->
<g id="node5" class="node">
<title>pages/Profile.js</title>
<g id="a_node5"><a xlink:href="pages/Profile.js" xlink:title="Profile.js">
<path fill="#ffffcc" stroke="black" d="M236,-446.94C236,-446.94 194,-446.94 194,-446.94 191,-446.94 188,-443.94 188,-440.94 188,-440.94 188,-434.94 188,-434.94 188,-431.94 191,-428.94 194,-428.94 194,-428.94 236,-428.94 236,-428.94 239,-428.94 242,-431.94 242,-434.94 242,-434.94 242,-440.94 242,-440.94 242,-443.94 239,-446.94 236,-446.94"/>
<text text-anchor="middle" x="215" y="-435.74" font-family="Helvetica,sans-Serif" font-size="9.00">Profile.js</text>
</a>
</g>
</g>
<!-- App.js&#45;&gt;pages/Profile.js -->
<g id="edge4" class="edge">
<title>App.js&#45;&gt;pages/Profile.js</title>
<path fill="none" stroke="#000000" stroke-width="2" stroke-opacity="0.200000" d="M122.55,-387.11C132.39,-397.18 149.48,-413.22 167,-422.94 171.63,-425.51 176.76,-427.71 181.89,-429.57"/>
<polygon fill="#000000" fill-opacity="0.200000" stroke="#000000" stroke-width="2" stroke-opacity="0.200000" points="181.51,-431.66 187.87,-431.61 182.87,-427.69 181.51,-431.66"/>
</g>
<!-- pages/Registration.js -->
<g id="node6" class="node">
<title>pages/Registration.js</title>
<g id="a_node6"><a xlink:href="pages/Registration.js" xlink:title="Registration.js">
<path fill="#ffffcc" stroke="black" d="M249,-386.94C249,-386.94 181,-386.94 181,-386.94 178,-386.94 175,-383.94 175,-380.94 175,-380.94 175,-374.94 175,-374.94 175,-371.94 178,-368.94 181,-368.94 181,-368.94 249,-368.94 249,-368.94 252,-368.94 255,-371.94 255,-374.94 255,-374.94 255,-380.94 255,-380.94 255,-383.94 252,-386.94 249,-386.94"/>
<text text-anchor="middle" x="215" y="-375.74" font-family="Helvetica,sans-Serif" font-size="9.00">Registration.js</text>
</a>
</g>
</g>
<!-- App.js&#45;&gt;pages/Registration.js -->
<g id="edge5" class="edge">
<title>App.js&#45;&gt;pages/Registration.js</title>
<path fill="none" stroke="#000000" stroke-width="2" stroke-opacity="0.200000" d="M140.01,-377.94C148.83,-377.94 158.95,-377.94 168.82,-377.94"/>
<polygon fill="#000000" fill-opacity="0.200000" stroke="#000000" stroke-width="2" stroke-opacity="0.200000" points="168.92,-380.04 174.92,-377.94 168.92,-375.84 168.92,-380.04"/>
</g>
<!-- PrivateRoute.js -->
<g id="node7" class="node">
<title>PrivateRoute.js</title>
<g id="a_node7"><a xlink:href="PrivateRoute.js" xlink:title="PrivateRoute.js">
<path fill="#ffffcc" stroke="black" d="M369.5,-524.94C369.5,-524.94 298.5,-524.94 298.5,-524.94 295.5,-524.94 292.5,-521.94 292.5,-518.94 292.5,-518.94 292.5,-512.94 292.5,-512.94 292.5,-509.94 295.5,-506.94 298.5,-506.94 298.5,-506.94 369.5,-506.94 369.5,-506.94 372.5,-506.94 375.5,-509.94 375.5,-512.94 375.5,-512.94 375.5,-518.94 375.5,-518.94 375.5,-521.94 372.5,-524.94 369.5,-524.94"/>
<text text-anchor="middle" x="334" y="-513.74" font-family="Helvetica,sans-Serif" font-size="9.00">PrivateRoute.js</text>
</a>
</g>
</g>
<!-- App.js&#45;&gt;PrivateRoute.js -->
<g id="edge6" class="edge">
<title>App.js&#45;&gt;PrivateRoute.js</title>
<path fill="none" stroke="#000000" stroke-width="2" stroke-opacity="0.200000" d="M116.25,-387.15C121.54,-406.73 136.64,-452.59 167,-475.94 201.2,-502.25 250.19,-511.57 286.08,-514.72"/>
<polygon fill="#000000" fill-opacity="0.200000" stroke="#000000" stroke-width="2" stroke-opacity="0.200000" points="286.03,-516.82 292.17,-515.21 286.36,-512.64 286.03,-516.82"/>
</g>
<!-- react&#45;auth0&#45;spa.js -->
<g id="node8" class="node">
<title>react&#45;auth0&#45;spa.js</title>
<g id="a_node8"><a xlink:href="react-auth0-spa.js" xlink:title="react&#45;auth0&#45;spa.js">
<path fill="#ffffcc" stroke="black" d="M497,-496.94C497,-496.94 411,-496.94 411,-496.94 408,-496.94 405,-493.94 405,-490.94 405,-490.94 405,-484.94 405,-484.94 405,-481.94 408,-478.94 411,-478.94 411,-478.94 497,-478.94 497,-478.94 500,-478.94 503,-481.94 503,-484.94 503,-484.94 503,-490.94 503,-490.94 503,-493.94 500,-496.94 497,-496.94"/>
<text text-anchor="middle" x="454" y="-485.74" font-family="Helvetica,sans-Serif" font-size="9.00">react&#45;auth0&#45;spa.js</text>
</a>
</g>
</g>
<!-- App.js&#45;&gt;react&#45;auth0&#45;spa.js -->
<g id="edge7" class="edge">
<title>App.js&#45;&gt;react&#45;auth0&#45;spa.js</title>
<path fill="none" stroke="#000000" stroke-width="2" stroke-opacity="0.200000" d="M115.13,-387.07C118.49,-410.14 130.56,-471.21 167,-502.94 244.66,-570.56 299.49,-564.06 397,-530.94 414.11,-525.13 430.09,-511.75 440.56,-501.45"/>
<polygon fill="#000000" fill-opacity="0.200000" stroke="#000000" stroke-width="2" stroke-opacity="0.200000" points="442.25,-502.72 444.97,-496.97 439.26,-499.77 442.25,-502.72"/>
</g>
<!-- utils/history.js -->
<g id="node9" class="node">
<title>utils/history.js</title>
<g id="a_node9"><a xlink:href="utils/history.js" xlink:title="history.js">
<path fill="#ffffcc" stroke="black" d="M237,-266.94C237,-266.94 193,-266.94 193,-266.94 190,-266.94 187,-263.94 187,-260.94 187,-260.94 187,-254.94 187,-254.94 187,-251.94 190,-248.94 193,-248.94 193,-248.94 237,-248.94 237,-248.94 240,-248.94 243,-251.94 243,-254.94 243,-254.94 243,-260.94 243,-260.94 243,-263.94 240,-266.94 237,-266.94"/>
<text text-anchor="middle" x="215" y="-255.74" font-family="Helvetica,sans-Serif" font-size="9.00">history.js</text>
</a>
</g>
</g>
<!-- App.js&#45;&gt;utils/history.js -->
<g id="edge8" class="edge">
<title>App.js&#45;&gt;utils/history.js</title>
<path fill="none" stroke="#000000" stroke-width="2" stroke-opacity="0.200000" d="M119.11,-368.47C127.78,-352.85 146.44,-321.13 167,-297.94 175.88,-287.93 187.28,-278.17 196.63,-270.79"/>
<polygon fill="#000000" fill-opacity="0.200000" stroke="#000000" stroke-width="2" stroke-opacity="0.200000" points="198.12,-272.29 201.58,-266.95 195.55,-268.97 198.12,-272.29"/>
</g>
<!-- components/Header.js -->
<g id="node16" class="node">
<title>components/Header.js</title>
<g id="a_node16"><a xlink:href="components/Header.js" xlink:title="Header.js">
<path fill="#ffffcc" stroke="black" d="M357,-446.94C357,-446.94 311,-446.94 311,-446.94 308,-446.94 305,-443.94 305,-440.94 305,-440.94 305,-434.94 305,-434.94 305,-431.94 308,-428.94 311,-428.94 311,-428.94 357,-428.94 357,-428.94 360,-428.94 363,-431.94 363,-434.94 363,-434.94 363,-440.94 363,-440.94 363,-443.94 360,-446.94 357,-446.94"/>
<text text-anchor="middle" x="334" y="-435.74" font-family="Helvetica,sans-Serif" font-size="9.00">Header.js</text>
</a>
</g>
</g>
<!-- pages/Login.js&#45;&gt;components/Header.js -->
<g id="edge15" class="edge">
<title>pages/Login.js&#45;&gt;components/Header.js</title>
<path fill="none" stroke="#000000" stroke-width="2" stroke-opacity="0.200000" d="M242.11,-320.67C249.97,-322.81 257.86,-326.52 263,-332.94 275.55,-348.61 257.9,-407.73 271,-422.94 277.95,-431.01 288.42,-435.13 298.79,-437.13"/>
<polygon fill="#000000" fill-opacity="0.200000" stroke="#000000" stroke-width="2" stroke-opacity="0.200000" points="298.61,-439.23 304.86,-438.08 299.25,-435.08 298.61,-439.23"/>
</g>
<!-- context/auth.js -->
<g id="node23" class="node">
<title>context/auth.js</title>
<g id="a_node23"><a xlink:href="context/auth.js" xlink:title="auth.js">
<path fill="#ffffcc" stroke="black" d="M355,-56.94C355,-56.94 313,-56.94 313,-56.94 310,-56.94 307,-53.94 307,-50.94 307,-50.94 307,-44.94 307,-44.94 307,-41.94 310,-38.94 313,-38.94 313,-38.94 355,-38.94 355,-38.94 358,-38.94 361,-41.94 361,-44.94 361,-44.94 361,-50.94 361,-50.94 361,-53.94 358,-56.94 355,-56.94"/>
<text text-anchor="middle" x="334" y="-45.74" font-family="Helvetica,sans-Serif" font-size="9.00">auth.js</text>
</a>
</g>
</g>
<!-- pages/Login.js&#45;&gt;context/auth.js -->
<g id="edge16" class="edge">
<title>pages/Login.js&#45;&gt;context/auth.js</title>
<path fill="none" stroke="#000000" stroke-width="2" stroke-opacity="0.200000" d="M242.03,-311.55C250.09,-308.25 258.12,-303.3 263,-295.94 275.79,-276.67 259.55,-108.03 271,-87.94 278.15,-75.39 291.03,-66.14 303.2,-59.71"/>
<polygon fill="#000000" fill-opacity="0.200000" stroke="#000000" stroke-width="2" stroke-opacity="0.200000" points="304.29,-61.52 308.72,-56.96 302.41,-57.76 304.29,-61.52"/>
</g>
<!-- pages/NoMatch.js&#45;&gt;components/Header.js -->
<g id="edge17" class="edge">
<title>pages/NoMatch.js&#45;&gt;components/Header.js</title>
<path fill="none" stroke="#000000" stroke-width="2" stroke-opacity="0.200000" d="M248.24,-416.9C255.7,-418.93 263.62,-421.04 271,-422.94 280.06,-425.27 289.9,-427.7 299.01,-429.9"/>
<polygon fill="#000000" fill-opacity="0.200000" stroke="#000000" stroke-width="2" stroke-opacity="0.200000" points="298.55,-431.95 304.87,-431.32 299.53,-427.87 298.55,-431.95"/>
</g>
<!-- components/Author.js -->
<g id="node11" class="node">
<title>components/Author.js</title>
<g id="a_node11"><a xlink:href="components/Author.js" xlink:title="Author.js">
<path fill="#ffffcc" stroke="black" d="M356,-296.94C356,-296.94 312,-296.94 312,-296.94 309,-296.94 306,-293.94 306,-290.94 306,-290.94 306,-284.94 306,-284.94 306,-281.94 309,-278.94 312,-278.94 312,-278.94 356,-278.94 356,-278.94 359,-278.94 362,-281.94 362,-284.94 362,-284.94 362,-290.94 362,-290.94 362,-293.94 359,-296.94 356,-296.94"/>
<text text-anchor="middle" x="334" y="-285.74" font-family="Helvetica,sans-Serif" font-size="9.00">Author.js</text>
</a>
</g>
</g>
<!-- pages/Player.js&#45;&gt;components/Author.js -->
<g id="edge18" class="edge">
<title>pages/Player.js&#45;&gt;components/Author.js</title>
<path fill="none" stroke="#000000" stroke-width="2" stroke-opacity="0.200000" d="M242.46,-344.38C249.97,-342.19 257.56,-338.64 263,-332.94 272.52,-322.95 261.13,-312.58 271,-302.94 278.68,-295.43 289.44,-291.46 299.84,-289.42"/>
<polygon fill="#000000" fill-opacity="0.200000" stroke="#000000" stroke-width="2" stroke-opacity="0.200000" points="300.31,-291.48 305.9,-288.44 299.64,-287.33 300.31,-291.48"/>
</g>
<!-- components/BookImage.js -->
<g id="node12" class="node">
<title>components/BookImage.js</title>
<g id="a_node12"><a xlink:href="components/BookImage.js" xlink:title="BookImage.js">
<path fill="#ffffcc" stroke="black" d="M366.5,-266.94C366.5,-266.94 301.5,-266.94 301.5,-266.94 298.5,-266.94 295.5,-263.94 295.5,-260.94 295.5,-260.94 295.5,-254.94 295.5,-254.94 295.5,-251.94 298.5,-248.94 301.5,-248.94 301.5,-248.94 366.5,-248.94 366.5,-248.94 369.5,-248.94 372.5,-251.94 372.5,-254.94 372.5,-254.94 372.5,-260.94 372.5,-260.94 372.5,-263.94 369.5,-266.94 366.5,-266.94"/>
<text text-anchor="middle" x="334" y="-255.74" font-family="Helvetica,sans-Serif" font-size="9.00">BookImage.js</text>
</a>
</g>
</g>
<!-- pages/Player.js&#45;&gt;components/BookImage.js -->
<g id="edge19" class="edge">
<title>pages/Player.js&#45;&gt;components/BookImage.js</title>
<path fill="none" stroke="#000000" stroke-width="2" stroke-opacity="0.200000" d="M242.43,-344.94C250.12,-342.77 257.83,-339.11 263,-332.94 280.27,-312.31 253,-292.93 271,-272.94 275.92,-267.47 282.46,-263.83 289.45,-261.44"/>
<polygon fill="#000000" fill-opacity="0.200000" stroke="#000000" stroke-width="2" stroke-opacity="0.200000" points="290.22,-263.4 295.4,-259.71 289.05,-259.37 290.22,-263.4"/>
</g>
<!-- components/BookPlayer.js -->
<g id="node13" class="node">
<title>components/BookPlayer.js</title>
<g id="a_node13"><a xlink:href="components/BookPlayer.js" xlink:title="BookPlayer.js">
<path fill="#ffffcc" stroke="black" d="M365,-236.94C365,-236.94 303,-236.94 303,-236.94 300,-236.94 297,-233.94 297,-230.94 297,-230.94 297,-224.94 297,-224.94 297,-221.94 300,-218.94 303,-218.94 303,-218.94 365,-218.94 365,-218.94 368,-218.94 371,-221.94 371,-224.94 371,-224.94 371,-230.94 371,-230.94 371,-233.94 368,-236.94 365,-236.94"/>
<text text-anchor="middle" x="334" y="-225.74" font-family="Helvetica,sans-Serif" font-size="9.00">BookPlayer.js</text>
</a>
</g>
</g>
<!-- pages/Player.js&#45;&gt;components/BookPlayer.js -->
<g id="edge20" class="edge">
<title>pages/Player.js&#45;&gt;components/BookPlayer.js</title>
<path fill="none" stroke="#000000" stroke-width="2" stroke-opacity="0.200000" d="M242.11,-345.21C249.97,-343.07 257.86,-339.36 263,-332.94 275.55,-317.27 257.9,-258.15 271,-242.94 276.18,-236.92 283.33,-233.1 290.93,-230.71"/>
<polygon fill="#000000" fill-opacity="0.200000" stroke="#000000" stroke-width="2" stroke-opacity="0.200000" points="291.54,-232.72 296.81,-229.16 290.47,-228.66 291.54,-232.72"/>
</g>
<!-- components/Chapter.js -->
<g id="node14" class="node">
<title>components/Chapter.js</title>
<g id="a_node14"><a xlink:href="components/Chapter.js" xlink:title="Chapter.js">
<path fill="#ffffcc" stroke="black" d="M359,-206.94C359,-206.94 309,-206.94 309,-206.94 306,-206.94 303,-203.94 303,-200.94 303,-200.94 303,-194.94 303,-194.94 303,-191.94 306,-188.94 309,-188.94 309,-188.94 359,-188.94 359,-188.94 362,-188.94 365,-191.94 365,-194.94 365,-194.94 365,-200.94 365,-200.94 365,-203.94 362,-206.94 359,-206.94"/>
<text text-anchor="middle" x="334" y="-195.74" font-family="Helvetica,sans-Serif" font-size="9.00">Chapter.js</text>
</a>
</g>
</g>
<!-- pages/Player.js&#45;&gt;components/Chapter.js -->
<g id="edge21" class="edge">
<title>pages/Player.js&#45;&gt;components/Chapter.js</title>
<path fill="none" stroke="#000000" stroke-width="2" stroke-opacity="0.200000" d="M242.19,-345.27C250.05,-343.14 257.93,-339.41 263,-332.94 279.47,-311.9 253.78,-233.38 271,-212.94 277.44,-205.29 287.05,-201.17 296.79,-199.05"/>
<polygon fill="#000000" fill-opacity="0.200000" stroke="#000000" stroke-width="2" stroke-opacity="0.200000" points="297.3,-201.09 302.84,-197.96 296.56,-196.95 297.3,-201.09"/>
</g>
<!-- components/Description.js -->
<g id="node15" class="node">
<title>components/Description.js</title>
<g id="a_node15"><a xlink:href="components/Description.js" xlink:title="Description.js">
<path fill="#ffffcc" stroke="black" d="M366.5,-176.94C366.5,-176.94 301.5,-176.94 301.5,-176.94 298.5,-176.94 295.5,-173.94 295.5,-170.94 295.5,-170.94 295.5,-164.94 295.5,-164.94 295.5,-161.94 298.5,-158.94 301.5,-158.94 301.5,-158.94 366.5,-158.94 366.5,-158.94 369.5,-158.94 372.5,-161.94 372.5,-164.94 372.5,-164.94 372.5,-170.94 372.5,-170.94 372.5,-173.94 369.5,-176.94 366.5,-176.94"/>
<text text-anchor="middle" x="334" y="-165.74" font-family="Helvetica,sans-Serif" font-size="9.00">Description.js</text>
</a>
</g>
</g>
<!-- pages/Player.js&#45;&gt;components/Description.js -->
<g id="edge22" class="edge">
<title>pages/Player.js&#45;&gt;components/Description.js</title>
<path fill="none" stroke="#000000" stroke-width="2" stroke-opacity="0.200000" d="M242.24,-345.31C250.11,-343.18 257.97,-339.45 263,-332.94 283.4,-306.52 249.67,-208.61 271,-182.94 275.76,-177.22 282.29,-173.46 289.33,-171.04"/>
<polygon fill="#000000" fill-opacity="0.200000" stroke="#000000" stroke-width="2" stroke-opacity="0.200000" points="290.16,-172.99 295.34,-169.31 289,-168.95 290.16,-172.99"/>
</g>
<!-- pages/Player.js&#45;&gt;components/Header.js -->
<g id="edge23" class="edge">
<title>pages/Player.js&#45;&gt;components/Header.js</title>
<path fill="none" stroke="#000000" stroke-width="2" stroke-opacity="0.200000" d="M242.43,-350.94C250.12,-353.1 257.83,-356.77 263,-362.94 280.27,-383.56 253,-402.95 271,-422.94 278.06,-430.78 288.46,-434.86 298.73,-436.9"/>
<polygon fill="#000000" fill-opacity="0.200000" stroke="#000000" stroke-width="2" stroke-opacity="0.200000" points="298.47,-438.99 304.73,-437.87 299.15,-434.84 298.47,-438.99"/>
</g>
<!-- components/LikeButton.js -->
<g id="node17" class="node">
<title>components/LikeButton.js</title>
<g id="a_node17"><a xlink:href="components/LikeButton.js" xlink:title="LikeButton.js">
<path fill="#ffffcc" stroke="black" d="M365.5,-146.94C365.5,-146.94 302.5,-146.94 302.5,-146.94 299.5,-146.94 296.5,-143.94 296.5,-140.94 296.5,-140.94 296.5,-134.94 296.5,-134.94 296.5,-131.94 299.5,-128.94 302.5,-128.94 302.5,-128.94 365.5,-128.94 365.5,-128.94 368.5,-128.94 371.5,-131.94 371.5,-134.94 371.5,-134.94 371.5,-140.94 371.5,-140.94 371.5,-143.94 368.5,-146.94 365.5,-146.94"/>
<text text-anchor="middle" x="334" y="-135.74" font-family="Helvetica,sans-Serif" font-size="9.00">LikeButton.js</text>
</a>
</g>
</g>
<!-- pages/Player.js&#45;&gt;components/LikeButton.js -->
<g id="edge24" class="edge">
<title>pages/Player.js&#45;&gt;components/LikeButton.js</title>
<path fill="none" stroke="#000000" stroke-width="2" stroke-opacity="0.200000" d="M242.27,-345.34C250.14,-343.21 258,-339.47 263,-332.94 275.17,-317.04 258.27,-168.39 271,-152.94 275.99,-146.88 282.98,-143.02 290.47,-140.62"/>
<polygon fill="#000000" fill-opacity="0.200000" stroke="#000000" stroke-width="2" stroke-opacity="0.200000" points="291.03,-142.64 296.27,-139.05 289.93,-138.59 291.03,-142.64"/>
</g>
<!-- components/NextButton.js -->
<g id="node18" class="node">
<title>components/NextButton.js</title>
<g id="a_node18"><a xlink:href="components/NextButton.js" xlink:title="NextButton.js">
<path fill="#ffffcc" stroke="black" d="M367,-116.94C367,-116.94 301,-116.94 301,-116.94 298,-116.94 295,-113.94 295,-110.94 295,-110.94 295,-104.94 295,-104.94 295,-101.94 298,-98.94 301,-98.94 301,-98.94 367,-98.94 367,-98.94 370,-98.94 373,-101.94 373,-104.94 373,-104.94 373,-110.94 373,-110.94 373,-113.94 370,-116.94 367,-116.94"/>
<text text-anchor="middle" x="334" y="-105.74" font-family="Helvetica,sans-Serif" font-size="9.00">NextButton.js</text>
</a>
</g>
</g>
<!-- pages/Player.js&#45;&gt;components/NextButton.js -->
<g id="edge25" class="edge">
<title>pages/Player.js&#45;&gt;components/NextButton.js</title>
<path fill="none" stroke="#000000" stroke-width="2" stroke-opacity="0.200000" d="M242.3,-345.36C250.17,-343.23 258.02,-339.49 263,-332.94 277.13,-314.35 256.21,-141.01 271,-122.94 275.66,-117.25 282.07,-113.5 289.01,-111.07"/>
<polygon fill="#000000" fill-opacity="0.200000" stroke="#000000" stroke-width="2" stroke-opacity="0.200000" points="289.78,-113.03 294.95,-109.32 288.6,-109 289.78,-113.03"/>
</g>
<!-- components/Recommendations.js -->
<g id="node19" class="node">
<title>components/Recommendations.js</title>
<g id="a_node19"><a xlink:href="components/Recommendations.js" xlink:title="Recommendations.js">
<path fill="#ffffcc" stroke="black" d="M383,-416.94C383,-416.94 285,-416.94 285,-416.94 282,-416.94 279,-413.94 279,-410.94 279,-410.94 279,-404.94 279,-404.94 279,-401.94 282,-398.94 285,-398.94 285,-398.94 383,-398.94 383,-398.94 386,-398.94 389,-401.94 389,-404.94 389,-404.94 389,-410.94 389,-410.94 389,-413.94 386,-416.94 383,-416.94"/>
<text text-anchor="middle" x="334" y="-405.74" font-family="Helvetica,sans-Serif" font-size="9.00">Recommendations.js</text>
</a>
</g>
</g>
<!-- pages/Player.js&#45;&gt;components/Recommendations.js -->
<g id="edge26" class="edge">
<title>pages/Player.js&#45;&gt;components/Recommendations.js</title>
<path fill="none" stroke="#000000" stroke-width="2" stroke-opacity="0.200000" d="M242.46,-351.5C249.97,-353.69 257.56,-357.23 263,-362.94 272.52,-372.93 261.13,-383.3 271,-392.94 271.89,-393.81 272.82,-394.63 273.79,-395.41"/>
<polygon fill="#000000" fill-opacity="0.200000" stroke="#000000" stroke-width="2" stroke-opacity="0.200000" points="272.78,-397.26 278.91,-398.94 275.16,-393.8 272.78,-397.26"/>
</g>
<!-- components/Search.js -->
<g id="node20" class="node">
<title>components/Search.js</title>
<g id="a_node20"><a xlink:href="components/Search.js" xlink:title="Search.js">
<path fill="#ffffcc" stroke="black" d="M357,-386.94C357,-386.94 311,-386.94 311,-386.94 308,-386.94 305,-383.94 305,-380.94 305,-380.94 305,-374.94 305,-374.94 305,-371.94 308,-368.94 311,-368.94 311,-368.94 357,-368.94 357,-368.94 360,-368.94 363,-371.94 363,-374.94 363,-374.94 363,-380.94 363,-380.94 363,-383.94 360,-386.94 357,-386.94"/>
<text text-anchor="middle" x="334" y="-375.74" font-family="Helvetica,sans-Serif" font-size="9.00">Search.js</text>
</a>
</g>
</g>
<!-- pages/Player.js&#45;&gt;components/Search.js -->
<g id="edge27" class="edge">
<title>pages/Player.js&#45;&gt;components/Search.js</title>
<path fill="none" stroke="#000000" stroke-width="2" stroke-opacity="0.200000" d="M242.26,-355.27C251.34,-357.76 261.61,-360.52 271,-362.94 280.06,-365.27 289.9,-367.7 299.01,-369.9"/>
<polygon fill="#000000" fill-opacity="0.200000" stroke="#000000" stroke-width="2" stroke-opacity="0.200000" points="298.55,-371.95 304.87,-371.32 299.53,-367.87 298.55,-371.95"/>
</g>
<!-- components/Title.js -->
<g id="node21" class="node">
<title>components/Title.js</title>
<g id="a_node21"><a xlink:href="components/Title.js" xlink:title="Title.js">
<path fill="#ffffcc" stroke="black" d="M355,-356.94C355,-356.94 313,-356.94 313,-356.94 310,-356.94 307,-353.94 307,-350.94 307,-350.94 307,-344.94 307,-344.94 307,-341.94 310,-338.94 313,-338.94 313,-338.94 355,-338.94 355,-338.94 358,-338.94 361,-341.94 361,-344.94 361,-344.94 361,-350.94 361,-350.94 361,-353.94 358,-356.94 355,-356.94"/>
<text text-anchor="middle" x="334" y="-345.74" font-family="Helvetica,sans-Serif" font-size="9.00">Title.js</text>
</a>
</g>
</g>
<!-- pages/Player.js&#45;&gt;components/Title.js -->
<g id="edge28" class="edge">
<title>pages/Player.js&#45;&gt;components/Title.js</title>
<path fill="none" stroke="#000000" stroke-width="2" stroke-opacity="0.200000" d="M242.26,-347.94C259.57,-347.94 282.36,-347.94 300.77,-347.94"/>
<polygon fill="#000000" fill-opacity="0.200000" stroke="#000000" stroke-width="2" stroke-opacity="0.200000" points="300.83,-350.04 306.83,-347.94 300.83,-345.84 300.83,-350.04"/>
</g>
<!-- components/UserLibrary.js -->
<g id="node22" class="node">
<title>components/UserLibrary.js</title>
<g id="a_node22"><a xlink:href="components/UserLibrary.js" xlink:title="UserLibrary.js">
<path fill="#ffffcc" stroke="black" d="M366.5,-326.94C366.5,-326.94 301.5,-326.94 301.5,-326.94 298.5,-326.94 295.5,-323.94 295.5,-320.94 295.5,-320.94 295.5,-314.94 295.5,-314.94 295.5,-311.94 298.5,-308.94 301.5,-308.94 301.5,-308.94 366.5,-308.94 366.5,-308.94 369.5,-308.94 372.5,-311.94 372.5,-314.94 372.5,-314.94 372.5,-320.94 372.5,-320.94 372.5,-323.94 369.5,-326.94 366.5,-326.94"/>
<text text-anchor="middle" x="334" y="-315.74" font-family="Helvetica,sans-Serif" font-size="9.00">UserLibrary.js</text>
</a>
</g>
</g>
<!-- pages/Player.js&#45;&gt;components/UserLibrary.js -->
<g id="edge29" class="edge">
<title>pages/Player.js&#45;&gt;components/UserLibrary.js</title>
<path fill="none" stroke="#000000" stroke-width="2" stroke-opacity="0.200000" d="M242.26,-340.61C251.34,-338.12 261.61,-335.36 271,-332.94 276.87,-331.43 283.07,-329.88 289.18,-328.37"/>
<polygon fill="#000000" fill-opacity="0.200000" stroke="#000000" stroke-width="2" stroke-opacity="0.200000" points="289.92,-330.35 295.25,-326.89 288.92,-326.27 289.92,-330.35"/>
</g>
<!-- pages/Profile.js&#45;&gt;react&#45;auth0&#45;spa.js -->
<g id="edge31" class="edge">
<title>pages/Profile.js&#45;&gt;react&#45;auth0&#45;spa.js</title>
<path fill="none" stroke="#000000" stroke-width="2" stroke-opacity="0.200000" d="M225.62,-447.05C235.94,-456.18 253.24,-469.75 271,-475.94 312.13,-490.27 361.6,-492.66 398.58,-491.81"/>
<polygon fill="#000000" fill-opacity="0.200000" stroke="#000000" stroke-width="2" stroke-opacity="0.200000" points="398.93,-493.9 404.86,-491.63 398.81,-489.71 398.93,-493.9"/>
</g>
<!-- pages/Profile.js&#45;&gt;components/Header.js -->
<g id="edge30" class="edge">
<title>pages/Profile.js&#45;&gt;components/Header.js</title>
<path fill="none" stroke="#000000" stroke-width="2" stroke-opacity="0.200000" d="M242.26,-437.94C258.82,-437.94 280.39,-437.94 298.35,-437.94"/>
<polygon fill="#000000" fill-opacity="0.200000" stroke="#000000" stroke-width="2" stroke-opacity="0.200000" points="298.79,-440.04 304.79,-437.94 298.79,-435.84 298.79,-440.04"/>
</g>
<!-- pages/Registration.js&#45;&gt;components/Header.js -->
<g id="edge32" class="edge">
<title>pages/Registration.js&#45;&gt;components/Header.js</title>
<path fill="none" stroke="#000000" stroke-width="2" stroke-opacity="0.200000" d="M255.32,-386.92C258.14,-388.6 260.75,-390.58 263,-392.94 272.52,-402.93 261.13,-413.3 271,-422.94 278.48,-430.25 288.88,-434.21 299.03,-436.29"/>
<polygon fill="#000000" fill-opacity="0.200000" stroke="#000000" stroke-width="2" stroke-opacity="0.200000" points="298.68,-438.36 304.95,-437.31 299.4,-434.22 298.68,-438.36"/>
</g>
<!-- PrivateRoute.js&#45;&gt;react&#45;auth0&#45;spa.js -->
<g id="edge9" class="edge">
<title>PrivateRoute.js&#45;&gt;react&#45;auth0&#45;spa.js</title>
<path fill="none" stroke="#000000" stroke-width="2" stroke-opacity="0.200000" d="M372.99,-506.93C384.35,-504.23 396.9,-501.25 408.63,-498.47"/>
<polygon fill="#000000" fill-opacity="0.200000" stroke="#000000" stroke-width="2" stroke-opacity="0.200000" points="409.33,-500.46 414.68,-497.03 408.36,-496.37 409.33,-500.46"/>
</g>
<!-- auth_config.json -->
<g id="node10" class="node">
<title>auth_config.json</title>
<g id="a_node10"><a xlink:href="auth_config.json" xlink:title="auth_config.json">
<path fill="#ffee44" stroke="black" d="M153,-294.94C153,-294.94 73,-294.94 73,-294.94 70,-294.94 67,-291.94 67,-288.94 67,-288.94 67,-282.94 67,-282.94 67,-279.94 70,-276.94 73,-276.94 73,-276.94 153,-276.94 153,-276.94 156,-276.94 159,-279.94 159,-282.94 159,-282.94 159,-288.94 159,-288.94 159,-291.94 156,-294.94 153,-294.94"/>
<text text-anchor="middle" x="113" y="-283.74" font-family="Helvetica,sans-Serif" font-size="9.00">auth_config.json</text>
</a>
</g>
</g>
<!-- components/Header.js&#45;&gt;react&#45;auth0&#45;spa.js -->
<g id="edge10" class="edge">
<title>components/Header.js&#45;&gt;react&#45;auth0&#45;spa.js</title>
<path fill="none" stroke="#000000" stroke-width="2" stroke-opacity="0.200000" d="M356.37,-446.99C375.8,-455.23 404.56,-467.42 425.66,-476.35"/>
<polygon fill="#000000" fill-opacity="0.200000" stroke="#000000" stroke-width="2" stroke-opacity="0.200000" points="425.05,-478.38 431.39,-478.78 426.69,-474.51 425.05,-478.38"/>
</g>
<!-- index.js -->
<g id="node24" class="node">
<title>index.js</title>
<g id="a_node24"><a xlink:href="index.js" xlink:title="index.js">
<path fill="#ffffcc" stroke="black" d="M48,-280.94C48,-280.94 6,-280.94 6,-280.94 3,-280.94 0,-277.94 0,-274.94 0,-274.94 0,-268.94 0,-268.94 0,-265.94 3,-262.94 6,-262.94 6,-262.94 48,-262.94 48,-262.94 51,-262.94 54,-265.94 54,-268.94 54,-268.94 54,-274.94 54,-274.94 54,-277.94 51,-280.94 48,-280.94"/>
<text text-anchor="middle" x="27" y="-269.74" font-family="Helvetica,sans-Serif" font-size="9.00">index.js</text>
</a>
</g>
</g>
<!-- index.js&#45;&gt;App.js -->
<g id="edge11" class="edge">
<title>index.js&#45;&gt;App.js</title>
<path fill="none" stroke="#000000" stroke-width="2" stroke-opacity="0.200000" d="M35.16,-280.98C49.85,-299.52 83.49,-341.96 100.98,-364.03"/>
<polygon fill="#000000" fill-opacity="0.200000" stroke="#000000" stroke-width="2" stroke-opacity="0.200000" points="99.48,-365.53 104.86,-368.92 102.78,-362.92 99.48,-365.53"/>
</g>
<!-- index.js&#45;&gt;react&#45;auth0&#45;spa.js -->
<g id="edge13" class="edge">
<title>index.js&#45;&gt;react&#45;auth0&#45;spa.js</title>
<path fill="none" stroke="#000000" stroke-width="2" stroke-opacity="0.200000" d="M33.6,-262.79C68.93,-206.18 263.61,90.19 397,-27.94 431.13,-58.16 448.72,-395.47 452.31,-472.39"/>
<polygon fill="#000000" fill-opacity="0.200000" stroke="#000000" stroke-width="2" stroke-opacity="0.200000" points="450.22,-472.73 452.59,-478.63 454.42,-472.54 450.22,-472.73"/>
</g>
<!-- index.js&#45;&gt;utils/history.js -->
<g id="edge14" class="edge">
<title>index.js&#45;&gt;utils/history.js</title>
<path fill="none" stroke="#000000" stroke-width="2" stroke-opacity="0.200000" d="M54.25,-269.96C87.48,-267.46 144.73,-263.15 180.91,-260.43"/>
<polygon fill="#000000" fill-opacity="0.200000" stroke="#000000" stroke-width="2" stroke-opacity="0.200000" points="181.15,-262.52 186.97,-259.97 180.83,-258.33 181.15,-262.52"/>
</g>
<!-- index.js&#45;&gt;auth_config.json -->
<g id="edge12" class="edge">
<title>index.js&#45;&gt;auth_config.json</title>
<path fill="none" stroke="#000000" stroke-width="2" stroke-opacity="0.200000" d="M54.12,-276.29C56.27,-276.65 58.48,-277.02 60.73,-277.39"/>
<polygon fill="#000000" fill-opacity="0.200000" stroke="#000000" stroke-width="2" stroke-opacity="0.200000" points="60.5,-279.48 66.76,-278.4 61.19,-275.34 60.5,-279.48"/>
</g>
</g>
</svg>
